<?xml version="1.0" standalone="no"?>
<!DOCTYPE svg PUBLIC "-//W3C//DTD SVG 20010904//EN"
 "http://www.w3.org/TR/2001/REC-SVG-20010904/DTD/svg10.dtd">
<svg version="1.0" xmlns="http://www.w3.org/2000/svg"
 width="752.000000pt" height="752.000000pt" viewBox="0 0 752.000000 752.000000"
 preserveAspectRatio="xMidYMid meet">
<metadata>
Created by potrace 1.11, written by Peter Selinger 2001-2013
</metadata>
<g transform="translate(0.000000,752.000000) scale(0.100000,-0.100000)"
fill="#000000" stroke="none">
<path d="M0 3760 l0 -3760 3760 0 3760 0 0 3760 0 3760 -3760 0 -3760 0 0
-3760z m1590 2522 l645 -248 0 -144 0 -145 -645 -247 c-355 -136 -647 -247
-650 -248 -3 0 -4 69 -3 152 l2 153 460 165 c254 91 461 168 461 171 0 3 -207
80 -461 170 l-460 164 -2 153 c-1 83 0 152 3 152 3 0 295 -112 650 -248z
m1940 -1297 l0 -125 -640 0 -640 0 0 125 0 125 640 0 640 0 0 -125z"/>
</g>
</svg>
